<svg version="1.1" id="Layer_1" xmlns="http://www.w3.org/2000/svg" xmlns:xlink="http://www.w3.org/1999/xlink" x="0px" y="0px"
	 width="100%" viewBox="0 0 512 512" enable-background="new 0 0 512 512" xml:space="preserve">
<path fill="#6495ED" opacity="1.000000" stroke="none" 
	d="
M289.000000,513.000000 
	C267.979095,513.000000 246.958206,513.000000 225.804871,512.660278 
	C225.162186,511.908447 224.705093,511.240417 224.133896,511.121826 
	C210.952652,508.384857 197.627502,506.223877 184.596909,502.904541 
	C162.119934,497.178894 141.319183,487.308075 121.664574,475.107758 
	C98.869255,460.957855 79.011360,443.379608 61.477238,423.061462 
	C49.391727,409.057037 38.924381,393.925537 30.374483,377.634247 
	C16.095102,350.425812 6.197954,321.681549 2.915441,290.907532 
	C2.841198,290.211487 1.663157,289.633209 0.999997,289.000000 
	C1.000000,267.645782 1.000000,246.291550 1.332836,224.807236 
	C2.106763,223.838547 2.788648,223.043930 2.951153,222.154434 
	C4.352936,214.481415 5.354717,206.722900 7.052197,199.118561 
	C13.182059,171.658112 23.732481,145.905792 38.563385,122.044586 
	C52.795586,99.146629 70.433418,79.092865 90.919334,61.482887 
	C104.949226,49.422596 120.070404,38.948467 136.354294,30.376936 
	C163.556641,16.058140 192.340271,6.279767 223.092590,2.915738 
	C223.789902,2.839457 224.366882,1.663177 225.000000,1.000000 
	C246.020889,1.000000 267.041779,1.000000 288.195496,1.340957 
	C289.338104,2.119538 290.310577,2.785508 291.363831,2.957896 
	C298.433807,4.115077 305.638428,4.677358 312.581390,6.341853 
	C337.280914,12.263309 360.997498,20.757923 383.139008,33.502514 
	C399.463287,42.898708 415.053619,53.367477 428.579865,66.378967 
	C440.210236,77.566681 451.193665,89.569336 461.353821,102.110344 
	C477.410583,121.929680 489.196106,144.394211 497.898315,168.330215 
	C504.337799,186.042404 509.373016,204.194000 511.086975,223.102783 
	C511.149017,223.787369 512.336853,224.369904 513.000000,225.000000 
	C513.000000,246.020889 513.000000,267.041779 512.659668,288.195038 
	C511.907501,288.837952 511.240082,289.295441 511.121429,289.866821 
	C508.384521,303.047882 506.221405,316.372192 502.904938,329.403473 
	C497.185822,351.875183 487.349335,372.681000 475.129120,392.322266 
	C460.961914,415.092987 443.411957,434.958862 423.099884,452.484924 
	C409.091064,464.572327 393.949982,475.010254 377.655609,483.585297 
	C350.439301,497.908112 321.685333,507.774811 290.905426,511.084259 
	C290.209656,511.159088 289.632477,512.336731 289.000000,513.000000 
M146.916397,417.594574 
	C187.727325,444.825439 232.448532,456.279053 281.242706,450.034088 
	C333.963898,443.286530 377.136597,418.909576 409.988770,377.201935 
	C442.267090,336.222748 455.924835,289.175293 450.659271,237.375565 
	C445.491608,186.538574 423.441711,143.666519 384.625366,110.175690 
	C339.547821,71.282700 286.874573,55.958405 228.172638,64.553886 
	C175.944870,72.201385 133.274033,97.684059 101.488640,140.067032 
	C68.931694,183.478836 56.396858,232.597916 64.574478,286.139740 
	C72.984802,341.205200 100.779938,384.913422 146.916397,417.594574 
z"/>
<path fill="#000000" opacity="1.000000" stroke="none" 
	d="
M513.000000,224.531342 
	C512.336853,224.369904 511.149017,223.787369 511.086975,223.102783 
	C509.373016,204.194000 504.337799,186.042404 497.898315,168.330215 
	C489.196106,144.394211 477.410583,121.929680 461.353821,102.110344 
	C451.193665,89.569336 440.210236,77.566681 428.579865,66.378967 
	C415.053619,53.367477 399.463287,42.898708 383.139008,33.502514 
	C360.997498,20.757923 337.280914,12.263309 312.581390,6.341853 
	C305.638428,4.677358 298.433807,4.115077 291.363831,2.957896 
	C290.310577,2.785508 289.338104,2.119538 288.664124,1.340957 
	C363.593719,1.000000 438.187408,1.000000 513.000000,1.000000 
	C513.000000,75.354088 513.000000,149.708389 513.000000,224.531342 
z"/>
<path fill="#000000" opacity="1.000000" stroke="none" 
	d="
M0.999997,289.468658 
	C1.663157,289.633209 2.841198,290.211487 2.915441,290.907532 
	C6.197954,321.681549 16.095102,350.425812 30.374483,377.634247 
	C38.924381,393.925537 49.391727,409.057037 61.477238,423.061462 
	C79.011360,443.379608 98.869255,460.957855 121.664574,475.107758 
	C141.319183,487.308075 162.119934,497.178894 184.596909,502.904541 
	C197.627502,506.223877 210.952652,508.384857 224.133896,511.121826 
	C224.705093,511.240417 225.162186,511.908447 225.336212,512.660278 
	C150.406296,513.000000 75.812599,513.000000 1.000000,513.000000 
	C1.000000,438.645905 1.000000,364.291626 0.999997,289.468658 
z"/>
<path fill="#000000" opacity="1.000000" stroke="none" 
	d="
M289.468658,513.000000 
	C289.632477,512.336731 290.209656,511.159088 290.905426,511.084259 
	C321.685333,507.774811 350.439301,497.908112 377.655609,483.585297 
	C393.949982,475.010254 409.091064,464.572327 423.099884,452.484924 
	C443.411957,434.958862 460.961914,415.092987 475.129120,392.322266 
	C487.349335,372.681000 497.185822,351.875183 502.904938,329.403473 
	C506.221405,316.372192 508.384521,303.047882 511.121429,289.866821 
	C511.240082,289.295441 511.907501,288.837952 512.659668,288.663696 
	C513.000000,363.593719 513.000000,438.187408 513.000000,513.000000 
	C438.645905,513.000000 364.291626,513.000000 289.468658,513.000000 
z"/>
<path fill="#000000" opacity="1.000000" stroke="none" 
	d="
M224.531342,1.000000 
	C224.366882,1.663177 223.789902,2.839457 223.092590,2.915738 
	C192.340271,6.279767 163.556641,16.058140 136.354294,30.376936 
	C120.070404,38.948467 104.949226,49.422596 90.919334,61.482887 
	C70.433418,79.092865 52.795586,99.146629 38.563385,122.044586 
	C23.732481,145.905792 13.182059,171.658112 7.052197,199.118561 
	C5.354717,206.722900 4.352936,214.481415 2.951153,222.154434 
	C2.788648,223.043930 2.106763,223.838547 1.332836,224.338577 
	C1.000000,149.739456 1.000000,75.478920 1.000000,1.000000 
	C75.354088,1.000000 149.708389,1.000000 224.531342,1.000000 
z"/>
<path fill="#2F5EB3" opacity="1.000000" stroke="none" 
	d="
M146.622253,417.386688 
	C100.779938,384.913422 72.984802,341.205200 64.574478,286.139740 
	C56.396858,232.597916 68.931694,183.478836 101.488640,140.067032 
	C133.274033,97.684059 175.944870,72.201385 228.172638,64.553886 
	C286.874573,55.958405 339.547821,71.282700 384.625366,110.175690 
	C423.441711,143.666519 445.491608,186.538574 450.659271,237.375565 
	C455.924835,289.175293 442.267090,336.222748 409.988770,377.201935 
	C377.136597,418.909576 333.963898,443.286530 281.242706,450.034088 
	C232.448532,456.279053 187.727325,444.825439 146.622253,417.386688 
M271.116882,209.498047 
	C271.116882,190.834015 271.116882,172.169983 271.116882,152.456635 
	C274.128967,154.081833 275.781952,154.838867 277.295288,155.812805 
	C285.245880,160.929474 290.214630,168.293777 292.540924,177.308380 
	C293.579437,181.332718 294.774780,183.578583 299.536102,182.210281 
	C302.690002,181.303955 306.125854,181.404831 309.424408,180.970810 
	C320.109589,179.564865 330.789673,178.120117 342.759918,176.517914 
	C340.276398,168.752106 338.595551,161.458023 335.668427,154.704056 
	C324.348145,128.583954 303.243744,115.446625 275.937592,111.204697 
	C271.981018,110.590050 271.094971,108.941132 271.059357,105.369911 
	C270.925140,91.902641 270.835632,91.903534 257.326172,91.903534 
	C244.115448,91.903534 244.001785,91.903137 243.955368,105.218758 
	C243.941879,109.086548 242.844986,110.661736 238.731323,111.240479 
	C214.475861,114.652977 195.186890,126.109146 182.138992,147.255005 
	C172.796768,162.395309 170.730835,179.102966 172.091003,196.354248 
	C173.700241,216.764816 181.723267,234.386459 196.998779,248.228546 
	C208.678146,258.811951 222.642075,265.567871 237.641830,269.994049 
	C242.523468,271.434570 244.109055,273.643127 244.047394,278.690247 
	C243.778717,300.685120 243.939682,322.685089 243.918243,344.683228 
	C243.916382,346.601837 243.722763,348.520233 243.562683,351.457611 
	C241.064102,350.034973 239.316223,349.231445 237.778381,348.133698 
	C226.193939,339.864410 218.709961,328.681152 215.108505,315.015167 
	C214.056717,311.024170 212.403122,309.474274 208.239410,309.984711 
	C197.835236,311.260193 187.390900,312.204346 176.972229,313.367065 
	C172.768448,313.836243 168.589584,314.528748 164.115707,315.159637 
	C167.734726,337.639282 174.887085,357.548157 190.833542,373.422607 
	C203.955017,386.484802 220.026810,393.655487 238.096069,396.421753 
	C242.830536,397.146545 244.214157,399.133453 243.912048,403.608154 
	C243.587250,408.418732 243.901169,413.269623 243.833725,418.101501 
	C243.796570,420.763092 244.800156,422.124542 247.621689,422.095581 
	C254.120316,422.028870 260.621521,422.000854 267.118896,422.114960 
	C270.247986,422.169922 271.164215,420.654327 271.092651,417.811584 
	C270.987762,413.648010 271.073608,409.479675 271.074493,405.313385 
	C271.076294,396.791351 271.065643,396.746704 279.385437,394.952728 
	C307.750214,388.836609 329.786011,374.144836 342.195892,347.285095 
	C351.409668,327.342926 352.257507,306.414337 346.905518,285.244965 
	C342.095612,266.219849 330.797852,251.957748 313.329376,243.289383 
	C302.193115,237.763260 290.388031,233.533875 278.730103,229.127075 
	C270.264191,225.926880 271.221008,227.718903 271.121704,218.996048 
	C271.089478,216.163315 271.117065,213.329926 271.116882,209.498047 
z"/>
<path fill="#6495ED" opacity="1.000000" stroke="none" 
	d="
M271.117065,209.997437 
	C271.117065,213.329926 271.089478,216.163315 271.121704,218.996048 
	C271.221008,227.718903 270.264191,225.926880 278.730103,229.127075 
	C290.388031,233.533875 302.193115,237.763260 313.329376,243.289383 
	C330.797852,251.957748 342.095612,266.219849 346.905518,285.244965 
	C352.257507,306.414337 351.409668,327.342926 342.195892,347.285095 
	C329.786011,374.144836 307.750214,388.836609 279.385437,394.952728 
	C271.065643,396.746704 271.076294,396.791351 271.074493,405.313385 
	C271.073608,409.479675 270.987762,413.648010 271.092651,417.811584 
	C271.164215,420.654327 270.247986,422.169922 267.118896,422.114960 
	C260.621521,422.000854 254.120316,422.028870 247.621689,422.095581 
	C244.800156,422.124542 243.796570,420.763092 243.833725,418.101501 
	C243.901169,413.269623 243.587250,408.418732 243.912048,403.608154 
	C244.214157,399.133453 242.830536,397.146545 238.096069,396.421753 
	C220.026810,393.655487 203.955017,386.484802 190.833542,373.422607 
	C174.887085,357.548157 167.734726,337.639282 164.115707,315.159637 
	C168.589584,314.528748 172.768448,313.836243 176.972229,313.367065 
	C187.390900,312.204346 197.835236,311.260193 208.239410,309.984711 
	C212.403122,309.474274 214.056717,311.024170 215.108505,315.015167 
	C218.709961,328.681152 226.193939,339.864410 237.778381,348.133698 
	C239.316223,349.231445 241.064102,350.034973 243.562683,351.457611 
	C243.722763,348.520233 243.916382,346.601837 243.918243,344.683228 
	C243.939682,322.685089 243.778717,300.685120 244.047394,278.690247 
	C244.109055,273.643127 242.523468,271.434570 237.641830,269.994049 
	C222.642075,265.567871 208.678146,258.811951 196.998779,248.228546 
	C181.723267,234.386459 173.700241,216.764816 172.091003,196.354248 
	C170.730835,179.102966 172.796768,162.395309 182.138992,147.255005 
	C195.186890,126.109146 214.475861,114.652977 238.731323,111.240479 
	C242.844986,110.661736 243.941879,109.086548 243.955368,105.218758 
	C244.001785,91.903137 244.115448,91.903534 257.326172,91.903534 
	C270.835632,91.903534 270.925140,91.902641 271.059357,105.369911 
	C271.094971,108.941132 271.981018,110.590050 275.937592,111.204697 
	C303.243744,115.446625 324.348145,128.583954 335.668427,154.704056 
	C338.595551,161.458023 340.276398,168.752106 342.759918,176.517914 
	C330.789673,178.120117 320.109589,179.564865 309.424408,180.970810 
	C306.125854,181.404831 302.690002,181.303955 299.536102,182.210281 
	C294.774780,183.578583 293.579437,181.332718 292.540924,177.308380 
	C290.214630,168.293777 285.245880,160.929474 277.295288,155.812805 
	C275.781952,154.838867 274.128967,154.081833 271.116882,152.456635 
	C271.116882,172.169983 271.116882,190.834015 271.117065,209.997437 
M303.136261,313.670563 
	C302.186737,297.029327 287.126587,281.431641 271.675964,281.121674 
	C271.675964,305.257538 271.675964,329.392700 271.675964,353.554962 
	C289.199005,352.716492 303.150116,335.153015 303.136261,313.670563 
M224.193878,202.205811 
	C228.674591,209.289017 234.809723,214.188919 243.357422,217.206604 
	C243.357422,195.203171 243.357422,173.981140 243.357422,152.634918 
	C226.890823,156.504517 210.926849,179.898361 224.193878,202.205811 
z"/>
<path fill="#305FB4" opacity="1.000000" stroke="none" 
	d="
M303.144836,314.141418 
	C303.150116,335.153015 289.199005,352.716492 271.675964,353.554962 
	C271.675964,329.392700 271.675964,305.257538 271.675964,281.121674 
	C287.126587,281.431641 302.186737,297.029327 303.144836,314.141418 
z"/>
<path fill="#305FB4" opacity="1.000000" stroke="none" 
	d="
M224.011703,201.887085 
	C210.926849,179.898361 226.890823,156.504517 243.357422,152.634918 
	C243.357422,173.981140 243.357422,195.203171 243.357422,217.206604 
	C234.809723,214.188919 228.674591,209.289017 224.011703,201.887085 
z"/>
</svg>