<?xml version="1.0" standalone="no"?>
<!DOCTYPE svg PUBLIC "-//W3C//DTD SVG 20010904//EN"
 "http://www.w3.org/TR/2001/REC-SVG-20010904/DTD/svg10.dtd">
<svg version="1.0" xmlns="http://www.w3.org/2000/svg"
 width="564.000000pt" height="569.000000pt" viewBox="0 0 564.000000 569.000000"
 preserveAspectRatio="xMidYMid meet">

<g transform="translate(0.000000,569.000000) scale(0.100000,-0.100000)"
fill="#000000" stroke="none">
<path d="M2615 5104 c-378 -39 -736 -157 -1040 -342 -582 -354 -968 -927
-1060 -1574 -9 -63 -14 -170 -13 -273 l1 -170 8 150 c27 528 232 1000 599
1379 376 388 838 626 1375 706 495 73 987 -2 1431 -220 491 -241 873 -647
1064 -1129 43 -108 109 -335 111 -380 1 -18 3 -20 6 -8 15 57 -86 416 -165
587 -270 585 -830 1040 -1482 1205 -209 53 -320 67 -565 70 -126 2 -248 1
-270 -1z"/>
<path d="M2645 4283 c-66 -18 -101 -86 -86 -168 5 -27 9 -40 10 -28 0 13 14
37 29 54 24 27 37 33 85 37 54 4 58 3 93 -32 l37 -37 -6 51 c-9 76 -42 114
-108 123 -18 3 -43 3 -54 0z"/>
<path d="M2820 4027 c0 -25 4 -48 10 -52 5 -3 58 -10 117 -15 127 -11 231 -38
328 -85 77 -37 191 -119 224 -161 30 -38 32 -28 9 34 -62 165 -307 297 -591
318 l-97 7 0 -46z"/>
<path d="M2474 4025 c-280 -71 -492 -250 -570 -481 -29 -87 -45 -246 -25 -258
7 -5 11 5 11 31 0 96 58 231 143 334 112 135 286 235 489 279 l57 13 -6 51
c-3 28 -6 52 -7 53 -1 0 -42 -9 -92 -22z"/>
<path d="M2440 3287 c0 -52 33 -112 78 -141 38 -25 139 -62 147 -54 3 3 2 26
-1 51 -6 45 -9 47 -48 58 -64 17 -137 61 -158 94 l-18 30 0 -38z"/>
<path d="M5102 3200 c0 -14 2 -19 5 -12 2 6 2 18 0 25 -3 6 -5 1 -5 -13z"/>
<path d="M2918 3101 l4 -49 96 -12 c395 -51 626 -195 709 -445 l24 -70 -6 50
c-31 260 -202 440 -496 519 -103 28 -257 56 -304 56 -30 0 -30 0 -27 -49z"/>
<path d="M4518 2900 c-33 -657 -481 -1230 -1143 -1460 -439 -153 -952 -123
-1370 81 -444 216 -751 591 -870 1064 l-15 60 6 -50 c9 -85 60 -265 102 -362
88 -204 192 -352 363 -518 368 -355 877 -522 1417 -465 197 21 435 94 622 191
166 86 288 176 431 319 229 229 367 477 440 795 19 86 38 397 27 450 -2 11 -7
-36 -10 -105z"/>
<path d="M2180 2461 c-14 -4 -44 -18 -67 -29 -105 -54 -157 -192 -119 -317
l12 -40 0 55 c2 126 98 219 246 236 38 4 72 1 112 -10 57 -17 67 -25 185 -149
44 -47 105 -77 184 -91 l37 -7 0 44 c0 51 -10 62 -63 70 -76 12 -140 51 -207
126 -81 92 -122 113 -220 117 -41 2 -86 0 -100 -5z"/>
<path d="M3171 2375 c-14 -40 -80 -100 -129 -117 -30 -11 -33 -16 -28 -42 3
-15 6 -39 6 -52 0 -21 2 -22 30 -13 41 15 114 82 134 123 16 35 22 136 8 136
-4 0 -14 -16 -21 -35z"/>
<path d="M2040 2002 c6 -13 14 -21 18 -18 3 4 -2 14 -12 24 -18 16 -18 16 -6
-6z"/>
</g>
</svg>
